<svg width="100%" height="100%" viewBox="0 0 64 64" xmlns="http://www.w3.org/2000/svg">
  <rect x="2" y="2" width="28" height="28" rx="2" ry="2" fill="currentColor"/>
  <rect x="34" y="2" width="28" height="28" rx="2" ry="2" fill="currentColor"/>
  
  <rect x="2" y="34" width="12" height="12" rx="2" ry="2" fill="currentColor"/>
  <rect x="18" y="34" width="12" height="12" rx="2" ry="2" fill="currentColor"/>
  <rect x="34" y="34" width="12" height="12" rx="2" ry="2" fill="currentColor"/>
  <rect x="50" y="34" width="12" height="12" rx="2" ry="2" fill="currentColor"/>
  
  <rect x="2" y="50" width="12" height="12" rx="2" ry="2" fill="currentColor"/>
  <rect x="18" y="50" width="12" height="12" rx="2" ry="2" fill="currentColor"/>
  <rect x="34" y="50" width="12" height="12" rx="2" ry="2" fill="currentColor"/>
  <rect x="50" y="50" width="12" height="12" rx="2" ry="2" fill="currentColor"/>
</svg>